<svg width="16" height="17" viewBox="0 0 16 17" fill="none" xmlns="http://www.w3.org/2000/svg">
<path fill-rule="evenodd" clip-rule="evenodd" d="M6.776 2.05301C6.89455 1.99361 7.03184 1.98373 7.15768 2.02555C7.28351 2.06737 7.38758 2.15746 7.447 2.27601L10.447 8.27601C10.4818 8.34554 10.5 8.42224 10.5 8.50001C10.5 8.57778 10.4818 8.65448 10.447 8.72401L7.447 14.724C7.41789 14.7832 7.37735 14.8361 7.32771 14.8796C7.27808 14.9231 7.22032 14.9563 7.15779 14.9773C7.09525 14.9984 7.02916 15.0069 6.96334 15.0023C6.89751 14.9976 6.83325 14.98 6.77425 14.9505C6.71526 14.9209 6.6627 14.88 6.61961 14.83C6.57651 14.78 6.54374 14.722 6.52317 14.6593C6.5026 14.5966 6.49465 14.5305 6.49977 14.4647C6.50489 14.3989 6.52298 14.3348 6.553 14.276L9.44 8.50001L6.553 2.72401C6.49359 2.60546 6.48371 2.46816 6.52553 2.34233C6.56735 2.21649 6.65745 2.11242 6.776 2.05301Z" fill="white"/>
</svg>
