<svg width="52" height="54" viewBox="0 0 52 54" fill="none" xmlns="http://www.w3.org/2000/svg">
<rect width="51.7337" height="52.8584" transform="translate(0 0.584961)" fill="url(#paint0_linear_558_1482)"/>
<g clip-path="url(#clip0_558_1482)">
<path fill-rule="evenodd" clip-rule="evenodd" d="M16.2889 26.2091C18.8302 26.2091 21.3715 26.2087 23.9128 26.2094C24.5312 26.2095 24.7158 26.3898 24.7159 27.0079C24.7174 31.3116 24.7174 35.6155 24.7159 39.9193C24.7157 40.5367 24.5299 40.7182 23.9125 40.7182C18.8299 40.7188 13.7474 40.7187 8.66487 40.7183C8.04667 40.7182 7.87004 40.5429 7.86994 39.9191C7.86887 35.6153 7.86887 31.3115 7.86994 27.0077C7.87004 26.3831 8.04541 26.2094 8.66516 26.2093C11.2063 26.2087 13.7476 26.2091 16.2889 26.2091ZM23.526 39.5466C23.526 35.4721 23.526 31.4309 23.526 27.3989C21.9797 27.3989 20.4625 27.3989 18.933 27.3989C18.933 27.5605 18.933 27.6931 18.933 27.8257C18.933 29.4938 18.933 31.162 18.933 32.8302C18.933 32.9148 18.9306 32.9995 18.9332 33.0841C18.9428 33.3801 18.8314 33.607 18.5448 33.7135C18.2523 33.8223 18.0282 33.6982 17.8469 33.471C17.3445 32.8415 16.8429 32.2115 16.3197 31.5552C15.8173 32.1841 15.3396 32.7742 14.8714 33.3717C14.6739 33.6236 14.4632 33.8364 14.1113 33.7195C13.7445 33.5978 13.7 33.2971 13.7013 32.9589C13.7078 31.2303 13.7043 29.5017 13.7043 27.7731C13.7043 27.6454 13.7043 27.5177 13.7043 27.3922C12.1232 27.3922 10.592 27.3922 9.06074 27.3922C9.06074 31.4548 9.06074 35.4952 9.06074 39.5467C13.8922 39.5466 18.6937 39.5466 23.526 39.5466ZM17.7456 31.4757C17.7456 30.0523 17.7456 28.7206 17.7456 27.3984C16.773 27.3984 15.8261 27.3984 14.8851 27.3984C14.8851 28.7489 14.8851 30.0706 14.8851 31.479C15.1949 31.0948 15.4565 30.7725 15.7156 30.4481C16.1497 29.9046 16.491 29.9072 16.9322 30.4591C17.1871 30.7778 17.4422 31.0966 17.7456 31.4757Z" fill="white"/>
<path fill-rule="evenodd" clip-rule="evenodd" d="M35.5273 40.7187C32.9861 40.7187 30.4448 40.7188 27.9035 40.7184C27.2803 40.7183 27.0932 40.5393 27.093 39.9269C27.0914 35.611 27.0913 31.2951 27.0932 26.9791C27.0935 26.4056 27.2897 26.2097 27.8518 26.2097C32.9705 26.2088 38.0895 26.2087 43.2083 26.2098C43.7361 26.2099 43.9376 26.4029 43.9379 26.9276C43.9405 31.2797 43.9404 35.632 43.9381 39.9841C43.9378 40.5298 43.7399 40.7178 43.1874 40.7181C40.634 40.7192 38.0807 40.7187 35.5273 40.7187ZM38.1043 27.3834C38.1043 28.545 38.1044 29.6787 38.1043 30.8123C38.1042 31.586 38.1042 32.3596 38.1035 33.1332C38.1032 33.418 37.9741 33.6225 37.7043 33.7184C37.444 33.811 37.2283 33.7165 37.0575 33.516C36.9087 33.341 36.7705 33.1573 36.6271 32.9778C36.2536 32.5105 35.8796 32.0434 35.4896 31.5558C34.9822 32.1915 34.504 32.7832 34.035 33.3819C33.8363 33.6355 33.621 33.8389 33.2706 33.7152C32.9254 33.5934 32.8719 33.3092 32.873 32.9823C32.8791 31.2417 32.8758 29.5009 32.8758 27.7602C32.8758 27.6338 32.8758 27.5074 32.8758 27.3901C31.3085 27.3901 29.8003 27.3901 28.2806 27.3901C28.2806 31.4524 28.2806 35.4943 28.2806 39.5378C33.1185 39.5378 37.93 39.5378 42.751 39.5378C42.751 35.4775 42.751 31.4371 42.751 27.3833C41.2026 27.3834 39.6809 27.3834 38.1043 27.3834ZM36.9215 27.391C35.9594 27.391 35.0127 27.391 34.0631 27.391C34.0631 28.7415 34.0631 30.0705 34.0631 31.4794C34.3879 31.0717 34.6622 30.7235 34.9407 30.3789C35.3013 29.9328 35.6811 29.9354 36.0458 30.3856C36.3231 30.728 36.597 31.073 36.9215 31.4783C36.9215 30.064 36.9215 28.7342 36.9215 27.391Z" fill="white"/>
<path fill-rule="evenodd" clip-rule="evenodd" d="M26.1954 25.0482C23.6538 25.0482 21.1123 25.0485 18.5707 25.0479C17.9529 25.0478 17.7719 24.8671 17.7718 24.25C17.7714 19.9456 17.7714 15.6414 17.7718 11.3371C17.7719 10.7188 17.9517 10.539 18.5698 10.5389C23.6529 10.5385 28.7361 10.5385 33.8191 10.5389C34.4374 10.5389 34.6187 10.7196 34.6188 11.336C34.6193 15.6403 34.6193 19.9445 34.6188 24.249C34.6187 24.8659 34.4368 25.0476 33.8202 25.0478C31.2785 25.0484 28.7369 25.0482 26.1954 25.0482ZM18.95 23.8625C23.797 23.8625 28.6166 23.8625 33.429 23.8625C33.429 19.7962 33.429 15.7551 33.429 11.7189C31.8809 11.7189 30.3611 11.7189 28.8096 11.7189C28.8096 11.868 28.8096 11.998 28.8096 12.128C28.8096 13.6147 28.8096 15.1015 28.8096 16.5882C28.8096 16.6728 28.8075 16.7575 28.8097 16.842C28.8175 17.1392 28.7005 17.3636 28.4134 17.4659C28.1197 17.5707 27.8982 17.4414 27.7182 17.2138C27.5082 16.9484 27.2984 16.6828 27.0868 16.4186C26.7956 16.055 26.5029 15.6927 26.1931 15.3078C25.6971 15.9288 25.2268 16.5103 24.7655 17.099C24.5621 17.3585 24.3514 17.5939 23.9804 17.4664C23.5934 17.3334 23.5768 17.008 23.5782 16.6644C23.5843 15.1414 23.5808 13.6185 23.5808 12.0954C23.5808 11.9685 23.5808 11.8415 23.5808 11.7183C22.0058 11.7183 20.4861 11.7183 18.9498 11.7183C18.95 15.7697 18.95 19.8023 18.95 23.8625ZM27.6222 15.2247C27.6222 13.9952 27.6222 12.8571 27.6222 11.7278C26.6496 11.7278 25.703 11.7278 24.7615 11.7278C24.7615 12.8846 24.7615 14.0131 24.7615 15.2323C25.0796 14.8353 25.347 14.5023 25.6139 14.1689C26.0168 13.6653 26.3761 13.6684 26.7854 14.1797C27.0483 14.5079 27.311 14.8362 27.6222 15.2247Z" fill="white"/>
<path fill-rule="evenodd" clip-rule="evenodd" d="M22.9832 37.2612C22.9832 37.6437 22.9832 38.0015 22.9832 38.3777C21.0611 38.3777 19.1553 38.3777 17.2197 38.3777C17.2197 38.0203 17.2197 37.6537 17.2197 37.2612C19.1244 37.2612 21.0389 37.2612 22.9832 37.2612Z" fill="white"/>
<path fill-rule="evenodd" clip-rule="evenodd" d="M21.8211 35.5142C21.8211 35.8897 21.8211 36.2473 21.8211 36.6304C20.6783 36.6304 19.5382 36.6304 18.375 36.6304C18.375 36.2654 18.375 35.8994 18.375 35.5142C19.5158 35.5142 20.6473 35.5142 21.8211 35.5142Z" fill="white"/>
<path fill-rule="evenodd" clip-rule="evenodd" d="M36.3779 38.3716C36.3779 37.9888 36.3779 37.6311 36.3779 37.2549C38.3001 37.2549 40.206 37.2549 42.1414 37.2549C42.1414 37.6126 42.1414 37.9792 42.1414 38.3716C40.2366 38.3716 38.3221 38.3716 36.3779 38.3716Z" fill="white"/>
<path fill-rule="evenodd" clip-rule="evenodd" d="M37.5439 35.5112C38.6938 35.5112 39.8251 35.5112 40.9831 35.5112C40.9831 35.8781 40.9831 36.2442 40.9831 36.6333C39.8442 36.6333 38.7042 36.6333 37.5439 36.6333C37.5439 36.2685 37.5439 35.911 37.5439 35.5112Z" fill="white"/>
<path fill-rule="evenodd" clip-rule="evenodd" d="M32.8551 22.7107C31.1253 22.7107 29.413 22.7107 27.6738 22.7107C27.6738 22.3445 27.6738 21.9784 27.6738 21.5889C29.3929 21.5889 31.1136 21.5889 32.8551 21.5889C32.8551 21.9529 32.8551 22.3107 32.8551 22.7107Z" fill="white"/>
<path fill-rule="evenodd" clip-rule="evenodd" d="M32.2777 19.8496C32.2777 20.2332 32.2777 20.5908 32.2777 20.9667C31.1298 20.9667 29.9985 20.9667 28.8379 20.9667C28.8379 20.608 28.8379 20.2415 28.8379 19.8496C29.9689 19.8496 31.109 19.8496 32.2777 19.8496Z" fill="white"/>
</g>
<defs>
<linearGradient id="paint0_linear_558_1482" x1="48.212" y1="48.8919" x2="-8.47053" y2="-24.7954" gradientUnits="userSpaceOnUse">
<stop stop-color="#004990"/>
<stop offset="1" stop-color="#379DFF"/>
</linearGradient>
<clipPath id="clip0_558_1482">
<rect width="36.0735" height="33" fill="white" transform="translate(7.83008 10.5142)"/>
</clipPath>
</defs>
</svg>
