<svg width="52" height="54" viewBox="0 0 52 54" fill="none" xmlns="http://www.w3.org/2000/svg">
<rect width="51.7337" height="52.8584" transform="translate(0 0.233398)" fill="url(#paint0_linear_558_1465)"/>
<g clip-path="url(#clip0_558_1465)">
<path fill-rule="evenodd" clip-rule="evenodd" d="M28.9866 43.1436C28.8384 42.9846 28.6233 42.8497 28.5558 42.6619C28.4024 42.2346 28.7368 41.8622 29.2462 41.8572C30.0954 41.8488 30.9448 41.8548 31.7941 41.8547C31.8984 41.8547 32.0027 41.8547 32.16 41.8547C32.0637 41.7208 32.0006 41.627 31.9317 41.5379C29.9906 39.0339 28.051 36.5287 26.1 34.0325C26.0216 33.9324 25.8339 33.8707 25.6968 33.8702C23.235 33.8606 20.7731 33.8633 18.3111 33.8631C17.5754 33.8631 17.3807 33.6656 17.3806 32.9194C17.3803 31.7595 17.378 30.5995 17.3835 29.4396C17.3842 29.2811 17.3935 29.1094 17.454 28.9671C17.5701 28.694 17.8033 28.5627 18.1026 28.5919C18.4183 28.6228 18.6521 28.8639 18.6619 29.1993C18.6788 29.7788 18.6699 30.3591 18.6707 30.939C18.6715 31.473 18.6708 32.0072 18.6708 32.5574C20.8922 32.5574 23.0802 32.5574 25.2804 32.5574C25.1488 32.132 25.0049 31.7185 24.8931 31.2967C23.7392 26.9449 26.1546 22.3196 30.3837 20.7728C34.8867 19.1258 39.7775 21.1963 41.6687 25.6004C42.0064 26.3872 42.1254 27.2679 42.3427 28.1059C42.3718 28.2183 42.3846 28.335 42.4048 28.4497C42.4048 28.9223 42.4048 29.395 42.4048 29.8676C42.3822 29.9586 42.3499 30.0483 42.3382 30.1408C42.1405 31.692 41.6125 33.1189 40.6567 34.3606C38.8051 36.766 36.9291 39.1529 35.0636 41.5477C34.9959 41.6346 34.9321 41.7245 34.8355 41.8549C35.0191 41.8549 35.1359 41.8549 35.2527 41.8549C36.1009 41.855 36.9491 41.8471 37.7972 41.8581C38.3226 41.8651 38.6578 42.3105 38.4478 42.7383C38.3665 42.9039 38.165 43.0104 38.0182 43.1438C35.0075 43.1436 31.997 43.1436 28.9866 43.1436ZM33.4958 41.4411C33.5551 41.3759 33.5783 41.3535 33.598 41.3283C35.5801 38.7884 37.5811 36.263 39.5381 33.704C41.5041 31.1333 41.6348 27.8058 39.9357 25.043C37.7044 21.415 32.6884 20.3767 29.2034 22.8213C25.5733 25.3677 24.8066 30.2206 27.4979 33.7496C28.9239 35.6196 30.3867 37.4616 31.8335 39.3159C32.3799 40.0163 32.9281 40.7155 33.4958 41.4411Z" fill="white"/>
<path fill-rule="evenodd" clip-rule="evenodd" d="M9.375 33.0252C9.57585 32.665 9.88774 32.5632 10.2889 32.568C11.5997 32.5841 12.9109 32.574 14.2468 32.574C14.2468 28.8387 14.2468 25.1192 14.2468 21.3602C14.1302 21.3602 14.0158 21.3602 13.9014 21.3602C12.6972 21.3602 11.4929 21.3494 10.2889 21.3662C9.88765 21.3718 9.57577 21.2693 9.375 20.909C9.375 20.8017 9.375 20.6942 9.375 20.5868C9.52417 20.1879 9.82452 20.0641 10.2328 20.0669C11.7262 20.0778 13.2197 20.0703 14.7132 20.0717C15.334 20.0723 15.5615 20.303 15.5617 20.9342C15.5626 24.9594 15.5626 28.9846 15.5616 33.0097C15.5614 33.6359 15.3324 33.8622 14.704 33.8626C13.2321 33.8638 11.76 33.8539 10.2882 33.8691C9.88725 33.8732 9.57569 33.7717 9.375 33.4119C9.375 33.283 9.375 33.1541 9.375 33.0252Z" fill="white"/>
<path fill-rule="evenodd" clip-rule="evenodd" d="M24.4058 10.1465C24.802 10.305 24.9187 10.6155 24.9162 11.018C24.9077 12.3585 24.913 13.6992 24.913 15.0399C24.913 15.1564 24.913 15.2729 24.913 15.4101C28.1183 15.4101 31.3017 15.4101 34.5339 15.4101C34.5339 15.305 34.5339 15.1923 34.5339 15.0797C34.5339 13.739 34.5438 12.3983 34.5279 11.0579C34.5231 10.6575 34.6258 10.3468 34.9855 10.1465C35.1146 10.1465 35.2436 10.1465 35.3727 10.1465C35.7325 10.3468 35.8339 10.6579 35.8302 11.0582C35.8156 12.6564 35.8248 14.2549 35.8239 15.8533C35.8236 16.5054 35.6076 16.7198 34.9511 16.7199C31.4612 16.7204 27.9713 16.7204 24.4815 16.7198C23.8454 16.7197 23.6238 16.5024 23.6231 15.8756C23.6216 14.2557 23.6315 12.6358 23.6163 11.0161C23.6127 10.6202 23.7342 10.333 24.0833 10.1465C24.1907 10.1465 24.2983 10.1465 24.4058 10.1465Z" fill="white"/>
<path fill-rule="evenodd" clip-rule="evenodd" d="M24.3414 43.1438C23.9481 42.9799 23.8353 42.6669 23.8386 42.2658C23.8482 41.1392 23.842 40.0124 23.842 38.8857C23.842 38.7703 23.842 38.6548 23.842 38.5037C23.6863 38.5037 23.5607 38.5037 23.435 38.5037C19.0526 38.5037 14.6701 38.5003 10.2877 38.5094C9.88725 38.5102 9.57553 38.4122 9.375 38.0525C9.375 37.9236 9.375 37.7948 9.375 37.6658C9.57569 37.306 9.88749 37.2082 10.2881 37.209C14.9403 37.2179 19.5927 37.2145 24.2449 37.2149C24.9274 37.2149 25.1315 37.4165 25.132 38.0947C25.1333 39.4901 25.1235 40.8856 25.1382 42.2809C25.1424 42.6761 25.0261 42.9677 24.6639 43.1438C24.5564 43.1438 24.4489 43.1438 24.3414 43.1438Z" fill="white"/>
<path fill-rule="evenodd" clip-rule="evenodd" d="M9.37516 15.9466C9.52409 15.5482 9.82412 15.4261 10.2319 15.427C13.5166 15.4343 16.8014 15.4311 20.0861 15.4311C20.2122 15.4311 20.3383 15.4311 20.4991 15.4311C20.4991 15.272 20.4991 15.1464 20.4991 15.0207C20.4991 13.6909 20.5045 12.3612 20.4958 11.0315C20.4932 10.6337 20.5986 10.3173 20.987 10.1465C21.0945 10.1465 21.2021 10.1465 21.3096 10.1465C21.6818 10.3126 21.7955 10.6114 21.7933 11.0017C21.7844 12.6209 21.7912 14.2401 21.7888 15.8594C21.7879 16.51 21.5718 16.7199 20.9137 16.72C17.3714 16.7204 13.8292 16.7161 10.2871 16.726C9.88677 16.727 9.57545 16.6284 9.375 16.2691C9.37516 16.1615 9.37516 16.0541 9.37516 15.9466Z" fill="white"/>
<path fill-rule="evenodd" clip-rule="evenodd" d="M38.4697 10.1465C38.8296 10.3469 38.932 10.6579 38.9273 11.0583C38.9114 12.3886 38.9213 13.7191 38.9213 15.0495C38.9213 15.1654 38.9213 15.2811 38.9213 15.4312C39.8147 15.4312 40.6813 15.4408 41.5474 15.427C41.9558 15.4205 42.2557 15.548 42.4048 15.9468C42.4048 16.0543 42.4048 16.1616 42.4048 16.269C42.2045 16.6281 41.8939 16.7334 41.493 16.7262C40.4846 16.708 39.4757 16.7214 38.467 16.7196C37.8567 16.7186 37.6321 16.4935 37.6315 15.8816C37.6302 14.2734 37.6397 12.6653 37.6251 11.0574C37.6215 10.6572 37.7232 10.3467 38.0827 10.1465C38.2117 10.1465 38.3406 10.1465 38.4697 10.1465Z" fill="white"/>
<path fill-rule="evenodd" clip-rule="evenodd" d="M42.4045 20.9092C42.2043 21.2677 41.8949 21.3818 41.4939 21.3658C40.9481 21.3439 40.4008 21.3635 39.8543 21.3593C39.3755 21.3556 39.0936 21.1155 39.0908 20.7206C39.0882 20.3246 39.3711 20.0767 39.8451 20.0726C40.4131 20.0678 40.9816 20.0828 41.5492 20.0675C41.9571 20.0566 42.2559 20.1892 42.4044 20.5869C42.4045 20.6944 42.4045 20.8017 42.4045 20.9092Z" fill="white"/>
<path fill-rule="evenodd" clip-rule="evenodd" d="M18.6702 21.3605C18.6702 22.3455 18.6744 23.2789 18.6683 24.2123C18.6655 24.6369 18.4378 24.8974 18.0764 24.9206C17.6957 24.9451 17.3952 24.6945 17.3892 24.2746C17.3722 23.0936 17.3708 21.9119 17.3896 20.7309C17.3967 20.2891 17.6842 20.073 18.1767 20.0725C20.1976 20.0703 22.2187 20.0715 24.2397 20.0715C24.7342 20.0715 25.2287 20.0696 25.7232 20.072C26.2199 20.0745 26.5257 20.319 26.5298 20.7115C26.5338 21.1039 26.2255 21.3593 25.7323 21.3596C23.5179 21.3614 21.3033 21.3604 19.0888 21.3604C18.962 21.3605 18.835 21.3605 18.6702 21.3605Z" fill="white"/>
<path fill-rule="evenodd" clip-rule="evenodd" d="M18.0457 27.6072C17.7119 27.6164 17.3996 27.3192 17.3889 26.9825C17.3785 26.6512 17.6784 26.3384 18.0158 26.3284C18.3539 26.3184 18.658 26.6105 18.6658 26.9527C18.6736 27.2976 18.3892 27.5977 18.0457 27.6072Z" fill="white"/>
<path fill-rule="evenodd" clip-rule="evenodd" d="M28.2139 29.446C28.2061 25.7911 31.4796 23.2508 34.8115 24.1111C35.2344 24.2202 35.4383 24.4967 35.3743 24.8742C35.314 25.2302 34.9974 25.4484 34.5667 25.3585C33.7487 25.1876 32.9526 25.1906 32.1546 25.4684C30.4675 26.0557 29.3428 27.7921 29.5161 29.5722C29.6959 31.4202 31.0967 32.9096 32.8922 33.1621C35.3688 33.5103 37.4966 31.6805 37.492 29.1861C37.4913 28.8162 37.3933 28.4448 37.3236 28.0772C37.246 27.6681 37.3351 27.3954 37.6237 27.2385C37.9962 27.0359 38.417 27.2274 38.5519 27.6764C38.9845 29.1165 38.8465 30.5102 38.1044 31.8119C36.5018 34.6229 32.9009 35.3666 30.3125 33.4231C28.9261 32.382 28.259 30.9557 28.2139 29.446Z" fill="white"/>
<path fill-rule="evenodd" clip-rule="evenodd" d="M36.7745 25.3009C37.1059 25.2928 37.4171 25.5871 37.4321 25.923C37.4473 26.2585 37.1608 26.5669 36.8205 26.5815C36.465 26.5966 36.1531 26.3033 36.1485 25.9496C36.1441 25.61 36.4344 25.3093 36.7745 25.3009Z" fill="white"/>
</g>
<defs>
<linearGradient id="paint0_linear_558_1465" x1="48.212" y1="48.8919" x2="-8.47053" y2="-24.7954" gradientUnits="userSpaceOnUse">
<stop stop-color="#004990"/>
<stop offset="1" stop-color="#379DFF"/>
</linearGradient>
<clipPath id="clip0_558_1465">
<rect width="33" height="33" fill="white" transform="translate(9.36719 10.1626)"/>
</clipPath>
</defs>
</svg>
