<svg width="135" height="59" viewBox="0 0 135 59" fill="none" xmlns="http://www.w3.org/2000/svg">
<g clip-path="url(#clip0_569_706)">
<path fill-rule="evenodd" clip-rule="evenodd" d="M67.7129 0.364258L102.462 14.3043H124.125V19.9903H134.98V58.2133H0.4375V19.9903H11.2927V14.3043H32.9679L67.7129 0.364258ZM67.7449 3.27726L33.615 16.9843H14.1555V22.6703H3.29385V55.5383H132.121V22.6693H121.266V16.9833H101.878L67.7438 3.27726H67.7449ZM112.001 28.2873C112.371 28.2873 112.757 28.3023 113.147 28.3333C116.544 28.7903 119.901 30.7733 119.937 30.7933L119.99 30.8253V35.5083L119.835 35.4453C119.816 35.4413 118.259 34.8253 116.482 34.1353C115.639 33.8103 114.008 33.2623 112.577 33.2623C111.679 33.2623 111.005 33.4773 110.559 33.8983C110.14 34.2343 109.988 34.7883 110.052 35.1413C110.286 36.4003 112.404 37.1783 113.098 37.4313L113.223 37.4773C116.736 38.7923 118.918 40.3243 119.893 42.1523L119.932 42.2223C119.958 42.2673 119.98 42.3123 120.004 42.3553L120.041 42.4293C120.491 43.3243 120.703 44.2223 120.674 45.1043C120.563 48.2833 118.082 50.1503 118.055 50.1673C116.977 50.9893 115.3 51.4113 113.084 51.4113C109.021 51.4113 104.445 49.9923 104.402 49.9763L104.324 49.9553V44.8153L104.475 44.8703C104.525 44.8863 109.25 46.5323 111.581 46.8393L111.64 46.8463C111.802 46.8623 111.969 46.8743 112.136 46.8743C113.35 46.8743 114.309 46.3453 114.523 45.5633C114.732 44.8033 114.229 43.9513 113.238 43.3953L113.228 43.3893C112.35 42.9033 111.415 42.5033 110.511 42.1233C108.315 41.1923 106.046 40.2323 104.631 37.9313C103.529 35.8963 103.672 33.1713 104.966 31.4473C106.508 29.3523 108.874 28.2873 112.001 28.2873V28.2873ZM21.9045 24.4703V45.5223H31.4196V50.5383H15.754V24.4703H21.9045V24.4703ZM98.444 29.0803V34.1243H89.9903V37.4143H98.4451V42.2443H89.9903V45.5163H98.4451V50.5383H83.8078V29.0803H98.4451H98.444ZM48.7093 29.0803C50.326 29.0803 51.6351 30.3103 51.6351 31.8243V47.7973C51.6354 48.1572 51.5599 48.5137 51.413 48.8463C51.266 49.1789 51.0506 49.4811 50.7788 49.7357C50.5071 49.9902 50.1845 50.1921 49.8294 50.3299C49.4743 50.4676 49.0937 50.5384 48.7093 50.5383H36.828C36.4439 50.5381 36.0635 50.4671 35.7087 50.3293C35.3539 50.1914 35.0316 49.9895 34.7602 49.7349C34.4888 49.4803 34.2736 49.1782 34.1269 48.8457C33.9803 48.5133 33.905 48.157 33.9054 47.7973V31.8243C33.9046 31.0975 34.212 30.4001 34.76 29.8856C35.3081 29.371 36.0519 29.0813 36.828 29.0803H48.7093V29.0803ZM61.2976 29.0803V45.5223H65.0103V29.0803H70.4176V45.5223H74.1325V29.0803H80.2936V47.7973C80.2938 48.1573 80.2181 48.5139 80.071 48.8466C79.9239 49.1793 79.7083 49.4815 79.4363 49.7361C79.1644 49.9906 78.8416 50.1925 78.4863 50.3302C78.131 50.4678 77.7502 50.5385 77.3658 50.5383H70.0834C68.8586 50.5383 67.7129 49.7463 67.7129 48.5973L67.7118 48.6033L67.7065 48.7453C67.6178 49.7653 66.6152 50.4723 65.5036 50.5343L65.3434 50.5383H58.0611C57.2849 50.538 56.5406 50.2491 55.9918 49.7351C55.443 49.2212 55.1345 48.5241 55.1343 47.7973V29.0803H61.2976V29.0803ZM45.4728 34.1243H40.0645V45.5003H45.4728V34.1243ZM122.987 28.9363C124.01 28.9363 124.883 29.6763 124.883 30.6843C124.883 31.6973 124.01 32.4373 122.987 32.4373C121.96 32.4373 121.089 31.6973 121.089 30.6843C121.089 29.6763 121.96 28.9363 122.987 28.9363ZM122.987 29.2263C122.131 29.2263 121.464 29.8533 121.464 30.6843C121.464 31.5293 122.131 32.1463 122.987 32.1463C123.835 32.1463 124.501 31.5293 124.501 30.6843C124.501 29.8543 123.835 29.2273 122.987 29.2273V29.2263ZM123.089 29.6763C123.598 29.6763 123.845 29.8533 123.845 30.2513C123.845 30.6123 123.608 30.7723 123.292 30.8073L123.903 31.6973H123.539L122.97 30.8213H122.591V31.6973H122.268V29.6763H123.09H123.089ZM99.8065 24.4703L104.961 24.4723L104.071 30.6553L99.8044 30.6473L99.8065 24.4703ZM123.04 29.9373H122.592V30.5643H122.984C123.263 30.5643 123.508 30.5443 123.508 30.2283C123.508 29.9823 123.265 29.9383 123.04 29.9383V29.9373Z" fill="#004990"/>
</g>
<defs>
<clipPath id="clip0_569_706">
<rect width="134.542" height="58" fill="white" transform="translate(0.4375 0.364258)"/>
</clipPath>
</defs>
</svg>
