<svg width="141" height="58" viewBox="0 0 141 58" fill="none" xmlns="http://www.w3.org/2000/svg">
<g clip-path="url(#clip0_569_875)">
<path fill-rule="evenodd" clip-rule="evenodd" d="M106.847 14.2027H129.339V19.8867H140.605V58.1087H0.928711V19.8867H12.2004V14.2027H34.7016L70.7737 0.262695L106.847 14.2027Z" fill="#004990"/>
<path fill-rule="evenodd" clip-rule="evenodd" d="M116.75 27.9215C117.135 27.9215 117.535 27.9375 117.939 27.9685C121.467 28.4255 124.952 30.4085 124.989 30.4285L125.044 30.4605V35.1435L124.883 35.0805C124.863 35.0765 123.247 34.4605 121.402 33.7705C120.527 33.4455 118.834 32.8975 117.349 32.8975C116.416 32.8975 115.716 33.1125 115.253 33.5335C114.818 33.8695 114.66 34.4235 114.727 34.7765C114.97 36.0355 117.169 36.8135 117.889 37.0665L118.019 37.1125C121.666 38.4275 123.931 39.9595 124.943 41.7875L124.984 41.8575C125.011 41.9025 125.034 41.9475 125.058 41.9905L125.099 42.0685L125.244 42.3625C125.609 43.1595 125.781 43.9555 125.754 44.7395C125.639 47.9185 123.063 49.7855 123.035 49.8025C121.916 50.6245 120.175 51.0465 117.874 51.0465C113.656 51.0465 108.906 49.6275 108.861 49.6115L108.781 49.5905V44.4505L108.937 44.5055C108.989 44.5215 113.894 46.1675 116.314 46.4745L116.375 46.4815C116.544 46.4975 116.717 46.5095 116.891 46.5095C118.151 46.5095 119.147 45.9805 119.368 45.1985C119.586 44.4385 119.063 43.5865 118.035 43.0305L118.024 43.0245C117.112 42.5385 116.141 42.1385 115.203 41.7585C112.923 40.8275 110.568 39.8675 109.099 37.5665C107.955 35.5315 108.103 32.8065 109.447 31.0825C111.048 28.9875 113.504 27.9225 116.75 27.9225V27.9215ZM23.2153 24.1055V45.1575H33.0935V50.1735H16.8301V24.1055H23.2153ZM102.676 28.7155V33.7595H93.8995V37.0495H102.677V41.8795H93.8995V45.1515H102.677V50.1735H87.481V28.7155H102.677H102.676ZM51.0431 28.7155C52.7214 28.7155 54.0805 29.9455 54.0805 31.4595V47.4325C54.0808 47.7924 54.0025 48.1489 53.8499 48.4815C53.6974 48.8141 53.4737 49.1163 53.1916 49.3709C52.9095 49.6254 52.5746 49.8274 52.2059 49.9651C51.8373 50.1028 51.4421 50.1736 51.0431 50.1735H38.7083C38.3096 50.1733 37.9147 50.1023 37.5464 49.9645C37.178 49.8266 36.8434 49.6247 36.5617 49.3701C36.2799 49.1156 36.0565 48.8134 35.9042 48.4809C35.7519 48.1485 35.6738 47.7922 35.6742 47.4325V31.4595C35.6734 30.7327 35.9925 30.0353 36.5615 29.5208C37.1304 29.0062 37.9027 28.7165 38.7083 28.7155H51.0431V28.7155ZM64.1117 28.7155V45.1575H67.9662V28.7155H73.5798V45.1575H77.4365V28.7155H83.8328V47.4325C83.8329 47.7925 83.7544 48.1491 83.6017 48.4818C83.4489 48.8145 83.225 49.1167 82.9427 49.3713C82.6604 49.6259 82.3253 49.8277 81.9564 49.9654C81.5876 50.103 81.1923 50.1737 80.7931 50.1735H73.2329C71.9614 50.1735 70.7719 49.3815 70.7719 48.2325V48.2385L70.7652 48.3805C70.6732 49.4005 69.6323 50.1075 68.4783 50.1695L68.312 50.1735H60.7517C59.946 50.1732 59.1733 49.8843 58.6035 49.3704C58.0337 48.8564 57.7135 48.1593 57.7132 47.4325V28.7155H64.1117V28.7155ZM47.6831 33.7595H42.0683V45.1355H47.6831V33.7595ZM128.156 28.5715C129.218 28.5715 130.123 29.3115 130.123 30.3195C130.123 31.3325 129.218 32.0725 128.156 32.0725C127.089 32.0725 126.185 31.3325 126.185 30.3195C126.185 29.3115 127.089 28.5715 128.156 28.5715ZM128.156 28.8615C127.267 28.8615 126.574 29.4885 126.574 30.3195C126.574 31.1645 127.267 31.7815 128.156 31.7815C129.036 31.7815 129.728 31.1645 129.728 30.3195C129.728 29.4895 129.036 28.8625 128.156 28.8625V28.8615ZM128.261 29.3115C128.79 29.3115 129.046 29.4885 129.046 29.8865C129.046 30.2475 128.8 30.4075 128.472 30.4425L129.107 31.3325H128.729L128.138 30.4565H127.744V31.3325H127.409V29.3115H128.262H128.261ZM104.09 24.1055L109.441 24.1075L108.518 30.2905L104.088 30.2825L104.09 24.1055ZM128.21 29.5725H127.746V30.1995H128.152C128.442 30.1995 128.697 30.1795 128.697 29.8635C128.697 29.6175 128.444 29.5735 128.21 29.5735V29.5725Z" fill="#FFFFFE"/>
</g>
<defs>
<clipPath id="clip0_569_875">
<rect width="139.677" height="58" fill="white" transform="translate(0.928711)"/>
</clipPath>
</defs>
</svg>
