<svg width="52" height="54" viewBox="0 0 52 54" fill="none" xmlns="http://www.w3.org/2000/svg">
<rect width="51.7337" height="52.8584" transform="translate(0 0.530762)" fill="url(#paint0_linear_558_1451)"/>
<path fill-rule="evenodd" clip-rule="evenodd" d="M24.6337 43.4599C24.1446 43.0598 23.6618 42.6514 23.1618 42.2653C23.0383 42.17 22.8596 42.0992 22.7055 42.0978C21.3832 42.0848 20.0608 42.0977 18.7385 42.0884C16.9422 42.0757 15.5561 40.9368 15.2486 39.2189C15.198 38.9362 15.2003 38.6416 15.2002 38.3525C15.1979 30.3081 15.1982 22.2637 15.1984 14.2192C15.1984 12.1733 16.1452 10.9727 18.1313 10.4971C18.1501 10.4925 18.1653 10.4727 18.1821 10.46C22.6123 10.46 27.0424 10.46 31.4725 10.46C31.7775 10.5542 32.0991 10.6136 32.3848 10.7487C33.7904 11.4134 34.4599 12.5386 34.4586 14.0895C34.4531 20.2959 34.4564 26.5023 34.4564 32.7087C34.4564 32.8461 34.4564 32.9835 34.4564 33.1169C35.9074 33.2797 36.5633 34.2832 36.5352 35.5679C36.4846 37.8862 36.5132 40.2064 36.528 42.5256C36.5307 42.9416 36.4189 43.2534 36.0532 43.46C35.9241 43.46 35.7951 43.46 35.666 43.46C35.2699 43.2874 35.142 42.982 35.1442 42.5584C35.1562 40.1531 35.1507 37.7476 35.1494 35.3422C35.1491 34.8462 34.8887 34.5331 34.4775 34.5222C34.0583 34.511 33.7837 34.832 33.7797 35.3442C33.7767 35.7308 33.7812 36.1174 33.7777 36.504C33.7753 36.7756 33.6927 37.0107 33.4473 37.1628C32.9706 37.4582 32.4122 37.1306 32.3964 36.5289C32.3801 35.9066 32.3946 35.2834 32.391 34.6606C32.3881 34.1311 32.1356 33.838 31.6964 33.8443C31.2769 33.8503 31.0235 34.1514 31.0215 34.6528C31.0192 35.222 31.0212 35.7911 31.0208 36.3602C31.0204 36.9384 30.7781 37.2634 30.3434 37.2706C29.8975 37.2779 29.6506 36.9504 29.65 36.3484C29.6494 35.5967 29.6504 34.845 29.6498 34.0934C29.6493 33.4797 29.4173 33.1587 28.9695 33.1498C28.5114 33.1406 28.2635 33.473 28.2628 34.0987C28.2618 34.9256 28.2669 35.7525 28.2578 36.5792C28.2541 36.9219 28.0609 37.1655 27.7543 37.245C27.4497 37.3239 27.1831 37.2303 27.0271 36.9677C26.9351 36.8127 26.8979 36.6041 26.8973 36.4193C26.8889 34.0355 26.8918 31.6515 26.8917 29.2677C26.8917 28.662 26.6496 28.3343 26.2037 28.3347C25.7594 28.335 25.521 28.6602 25.5209 29.2692C25.5206 32.1149 25.5216 34.9605 25.5201 37.8062C25.5197 38.5314 25.109 38.8224 24.4306 38.5816C23.5612 38.2731 22.6915 37.9649 21.8243 37.65C21.5541 37.5519 21.316 37.58 21.1121 37.7841C20.834 38.0625 20.8798 38.4714 21.222 38.7659C22.5166 39.8802 23.8136 40.9917 25.1082 42.1059C25.6868 42.6037 25.6559 43.0587 25.0206 43.4599C24.8918 43.4599 24.7628 43.4599 24.6337 43.4599ZM22.7864 22.8081C24.1674 22.8081 25.4991 22.8081 26.8721 22.8081C26.4775 22.2829 26.1072 21.7972 25.7466 21.3045C25.6597 21.1858 25.5761 21.0508 25.5413 20.9108C25.464 20.6003 25.6238 20.2948 25.9017 20.1585C26.204 20.0103 26.5365 20.0824 26.7624 20.3774C27.3241 21.1105 27.8813 21.8473 28.4247 22.594C28.5608 22.7812 28.7036 22.8495 28.9314 22.8404C29.3821 22.8222 29.8343 22.8298 30.2857 22.8369C30.693 22.8433 30.9838 23.0994 31.0166 23.4638C31.0493 23.8276 30.8018 24.1224 30.4016 24.1988C30.352 24.2082 30.3039 24.2263 30.2473 24.2425C30.0528 25.8091 29.8564 27.3633 29.6684 28.9186C29.5986 29.4951 29.3724 29.71 28.7889 29.7151C28.6219 29.7167 28.4549 29.7154 28.2844 29.7154C28.2844 30.4594 28.2844 31.1511 28.2844 31.849C28.3477 31.849 28.3911 31.8567 28.431 31.8479C29.3 31.6575 30.0171 31.9004 30.5968 32.5784C30.6497 32.6402 30.8209 32.6577 30.9091 32.6233C31.4935 32.3961 32.0633 32.4044 32.6245 32.6851C32.7728 32.7593 32.9117 32.8521 33.0852 32.9544C33.0852 32.7977 33.0852 32.6814 33.0852 32.5652C33.0852 26.4219 33.0852 20.2787 33.0851 14.1354C33.0851 14.028 33.0865 13.9205 33.0823 13.8132C33.0482 12.9524 32.4872 12.144 31.6483 11.9555C31.0123 11.8126 30.3387 11.8367 29.6497 11.7839C29.6497 12.057 29.6516 12.2383 29.6494 12.4196C29.6332 13.7126 28.7632 14.5816 27.4743 14.584C25.7112 14.5874 23.9481 14.5873 22.185 14.5841C20.894 14.5819 20.0214 13.7144 20.0051 12.4248C20.0027 12.2359 20.0048 12.047 20.0048 11.8301C19.5288 11.8301 19.1008 11.8221 18.6731 11.8317C17.4391 11.8592 16.5708 12.737 16.5705 13.9689C16.5682 22.1743 16.568 30.3797 16.5706 38.585C16.571 39.8171 17.4435 40.6884 18.6828 40.7026C19.4782 40.7117 20.2738 40.705 21.0693 40.7039C21.1393 40.7038 21.2091 40.6926 21.3458 40.6808C20.9267 40.3209 20.5475 40.0109 20.1861 39.6815C19.4902 39.0474 19.3321 38.0518 19.7844 37.2407C20.2431 36.4181 21.1892 36.0311 22.1036 36.3055C22.5041 36.4258 22.8967 36.5723 23.2925 36.7081C23.56 36.7999 23.8267 36.894 24.1098 36.9927C24.1098 34.5384 24.1098 32.1393 24.1098 29.7155C23.9697 29.7155 23.8531 29.7155 23.7363 29.7155C22.7581 29.7155 21.7797 29.7194 20.8014 29.7136C20.3243 29.7107 20.0594 29.49 20.001 29.0467C19.9042 28.3126 19.8208 27.5767 19.73 26.842C19.6224 25.9709 19.5128 25.1 19.4054 24.2402C18.8541 24.1189 18.6032 23.8567 18.6378 23.4644C18.674 23.0527 18.9806 22.8359 19.5291 22.8353C19.9269 22.8348 20.3258 22.8164 20.722 22.842C20.9715 22.8582 21.1098 22.7598 21.2484 22.5699C21.7609 21.8672 22.2875 21.1744 22.8138 20.482C22.8967 20.3727 22.9927 20.2632 23.106 20.1893C23.3706 20.0165 23.7106 20.0674 23.9333 20.2897C24.1683 20.5242 24.2099 20.882 24.0014 21.1729C23.6145 21.7126 23.21 22.24 22.7864 22.8081ZM28.8557 24.2234C26.1544 24.2234 23.496 24.2234 20.7914 24.2234C20.9636 25.6022 21.1326 26.957 21.3039 28.3288C22.2638 28.3288 23.1867 28.333 24.1093 28.3211C24.1864 28.3201 24.293 28.2275 24.3337 28.1501C24.7334 27.3883 25.355 26.9613 26.217 26.9676C27.0631 26.9736 27.6808 27.3897 28.0676 28.147C28.1045 28.2193 28.1939 28.2647 28.2589 28.3227C28.2988 28.2469 28.3639 28.1746 28.3748 28.095C28.4844 27.2875 28.5871 26.4793 28.6877 25.6706C28.7466 25.1954 28.7983 24.7194 28.8557 24.2234ZM21.3919 11.8424C21.3919 12.0441 21.3903 12.2145 21.3921 12.3849C21.3984 12.9623 21.6401 13.2092 22.2162 13.2141C22.7966 13.219 23.377 13.2152 23.9573 13.2152C25.118 13.2152 26.2788 13.2171 27.4396 13.2141C27.8658 13.213 28.1675 13.0511 28.2212 12.7332C28.2695 12.4476 28.2314 12.1474 28.2314 11.8424C25.9533 11.8424 23.6999 11.8424 21.3919 11.8424Z" fill="white"/>
<defs>
<linearGradient id="paint0_linear_558_1451" x1="48.212" y1="48.8919" x2="-8.47053" y2="-24.7954" gradientUnits="userSpaceOnUse">
<stop stop-color="#004990"/>
<stop offset="1" stop-color="#379DFF"/>
</linearGradient>
</defs>
</svg>
