<svg width="52" height="54" viewBox="0 0 52 54" fill="none" xmlns="http://www.w3.org/2000/svg">
<rect width="51.7337" height="52.8584" transform="translate(0 0.179688)" fill="url(#paint0_linear_558_1442)"/>
<g clip-path="url(#clip0_558_1442)">
<path fill-rule="evenodd" clip-rule="evenodd" d="M36.1006 45.0386C35.609 44.9007 35.1006 44.8048 34.6289 44.6172C33.2387 44.064 32.2321 43.0885 31.5829 41.7474C31.5394 41.6577 31.4996 41.5662 31.4567 41.4762C31.452 41.4662 31.4384 41.4605 31.3981 41.4278C31.3148 41.498 31.2217 41.5702 31.136 41.6501C30.2435 42.4807 29.3022 43.2426 28.2353 43.8509C26.5619 44.8049 24.9208 44.7612 23.2687 43.8022C21.9078 43.0123 20.7339 41.9964 19.6689 40.8585C15.7531 36.6747 12.6938 31.961 10.7887 26.5409C9.62756 23.2376 9.22959 19.8315 9.4079 16.3503C9.46566 15.2219 9.83192 14.813 11.0159 14.5704C13.1072 14.1418 15.1015 13.4472 17.0081 12.4941C19.5054 11.2459 21.7779 9.67615 23.8597 7.82268C24.3582 7.37878 24.9255 7.01145 25.4611 6.60889C25.6624 6.60889 25.8636 6.60889 26.0648 6.60889C26.49 6.88924 26.9621 7.11895 27.3329 7.45815C30.0781 9.97052 33.1203 12.0278 36.6059 13.3729C37.8755 13.8628 39.2169 14.1688 40.5262 14.5567C40.7426 14.6207 40.9677 14.6591 41.1787 14.7363C41.7482 14.9446 42.1288 15.3439 42.1367 15.9571C42.1558 17.468 42.2023 18.9838 42.1075 20.4896C41.975 22.5926 41.4841 24.6363 40.7837 26.6271C40.7714 26.6625 40.7638 26.6997 40.7497 26.7342C40.6067 27.0884 40.3182 27.2448 40.0129 27.1345C39.6981 27.0209 39.5747 26.7355 39.6784 26.3653C39.9781 25.2956 40.3177 24.235 40.5682 23.154C41.0829 20.9327 41.1599 18.6725 41.0581 16.4037C41.0337 15.8567 41.0013 15.8137 40.4346 15.6941C38.5988 15.3066 36.8154 14.7638 35.1029 13.9934C32.0056 12.6003 29.2373 10.7212 26.742 8.43303C25.7337 7.5085 25.8625 7.51851 24.8593 8.43343C21.7966 11.2265 18.3742 13.4431 14.4298 14.7978C13.3888 15.1553 12.3056 15.3926 11.2386 15.6738C10.5623 15.8521 10.5688 15.8431 10.5299 16.5516C10.2863 20.9882 11.1863 25.1898 13.0756 29.208C15.1531 33.6262 17.912 37.5583 21.4084 40.9756C22.2082 41.7574 23.0932 42.4336 24.0896 42.964C25.2506 43.5818 26.3859 43.5667 27.5399 42.9457C28.8508 42.2402 29.9419 41.267 30.9697 40.2148C31.0481 40.1344 31.0806 39.9694 31.0701 39.8492C30.8199 36.9652 32.8688 34.2877 35.7303 33.7968C35.9893 33.7524 36.1349 33.6437 36.247 33.4338C37.0241 31.9788 37.8033 30.5249 38.5805 29.0698C38.6452 28.9487 38.6874 28.8146 38.7606 28.6994C38.9347 28.425 39.199 28.3542 39.4811 28.4827C39.7697 28.6142 39.8716 28.8735 39.766 29.1737C39.6794 29.4203 39.5622 29.6577 39.4429 29.8912C38.7954 31.1592 38.1432 32.4248 37.4776 33.7201C37.6396 33.7566 37.829 33.7988 38.0181 33.8419C40.7494 34.4649 42.5532 36.8578 42.4438 39.7126C42.3443 42.3127 40.2688 44.5636 37.5959 44.9728C37.5235 44.9838 37.4545 45.0162 37.3838 45.0385C36.9559 45.0386 36.5282 45.0386 36.1006 45.0386ZM41.319 39.3843C41.3269 36.8806 39.2966 34.8364 36.7925 34.8264C34.2585 34.8164 32.1896 36.8467 32.1829 39.3495C32.1763 41.8387 34.2243 43.8985 36.7196 43.9122C39.2502 43.9262 41.3112 41.8971 41.319 39.3843Z" fill="white"/>
<path fill-rule="evenodd" clip-rule="evenodd" d="M35.9712 24.8015C37.0984 26.4354 36.2746 28.544 34.3172 29.0522C34.0291 29.127 33.9138 29.2567 33.8119 29.5413C32.6299 32.8431 30.412 35.1004 26.9752 36.0462C25.3738 36.4868 23.8792 36.0166 22.4969 35.223C20.1644 33.884 18.5167 31.9693 17.7163 29.3762C17.6825 29.2666 17.5412 29.1676 17.4264 29.1091C16.9617 28.872 16.447 28.7097 16.0273 28.4128C15.4562 28.0085 15.198 27.3931 15.1958 26.686C15.1937 26.0254 15.1157 25.3485 15.5625 24.8812C15.4161 24.4341 15.228 24.0571 15.1773 23.6627C15.0812 22.916 15.5589 22.184 16.2888 21.9309C16.5756 21.8315 16.6613 21.6924 16.6982 21.4129C17.1744 17.8054 19.1187 15.3029 22.4721 13.8733C22.7024 13.7752 22.9401 13.6875 23.1825 13.6266C23.5506 13.5341 23.8599 13.4003 24.1242 13.0885C24.2857 12.8977 24.6203 12.7845 24.8872 12.7635C25.4871 12.7164 26.0933 12.7467 26.6969 12.7489C27.0752 12.7503 27.355 12.9362 27.6138 13.1988C27.7595 13.3467 27.9532 13.4863 28.15 13.5405C31.8612 14.5594 34.4902 17.6402 34.9178 21.4733C34.9331 21.6103 35.0457 21.8062 35.1618 21.852C36.4182 22.3468 36.806 23.5757 36.0376 24.6869C36.0165 24.7176 36 24.7515 35.9712 24.8015ZM18.6434 25.3547C18.6434 25.9578 18.6238 26.5179 18.6485 27.0759C18.6773 27.7224 18.6419 28.396 18.8142 29.0077C19.5107 31.4819 21.131 33.2303 23.3793 34.4165C24.4574 34.9853 25.6075 35.2508 26.8361 34.9345C27.9006 34.6604 28.8513 34.1636 29.698 33.4777C31.2894 32.1891 32.5352 30.6406 32.8639 28.5764C33.0272 27.5509 32.9197 26.4826 32.9323 25.4336C32.9326 25.415 32.9029 25.396 32.8685 25.3547C32.7498 25.3547 32.6127 25.3547 32.4757 25.3547C30.8286 25.3547 29.1816 25.3562 27.5346 25.3524C27.3732 25.352 27.1634 25.3751 27.0619 25.2882C26.8999 25.1492 26.7301 24.9353 26.7094 24.738C26.6819 24.4763 26.8793 24.2766 27.1717 24.24C27.2956 24.2245 27.4226 24.2293 27.5482 24.2293C29.8112 24.2287 32.0743 24.2294 34.3374 24.2275C34.4874 24.2274 34.6417 24.2277 34.7866 24.1951C35.1067 24.123 35.2865 23.9115 35.2928 23.5833C35.2996 23.2362 35.1124 23.0193 34.7792 22.9377C34.6594 22.9084 34.5298 22.9111 34.4047 22.9111C28.6716 22.9099 22.9385 22.9099 17.2055 22.9114C17.0682 22.9115 16.9262 22.9125 16.7945 22.9452C16.4752 23.0245 16.3005 23.2425 16.3012 23.5684C16.3019 23.8929 16.4721 24.1161 16.7944 24.1902C16.9511 24.2262 17.1181 24.2271 17.2805 24.2273C19.6945 24.2295 22.1084 24.2278 24.5223 24.2299C24.963 24.2302 25.225 24.4442 25.2235 24.7856C25.222 25.1252 24.9565 25.3401 24.5198 25.3538C24.4319 25.3566 24.3437 25.3545 24.2558 25.3545C22.5333 25.3545 20.8109 25.3545 19.0885 25.3545C18.9539 25.3547 18.8196 25.3547 18.6434 25.3547ZM27.9539 14.6935C28.1595 17.0771 28.3617 19.4229 28.5634 21.7623C30.3326 21.7623 32.0499 21.7623 33.7677 21.7623C33.6912 18.7897 31.3466 15.5234 27.9539 14.6935ZM23.6314 14.7326C21.0572 14.8068 17.55 19.0856 17.8458 21.762C19.5615 21.762 21.278 21.762 23.0236 21.762C23.2271 19.407 23.4292 17.0716 23.6314 14.7326ZM27.4267 21.7651C27.1977 19.1095 26.9727 16.5015 26.7477 13.8931C26.0823 13.8931 25.4835 13.8931 24.8415 13.8931C24.6141 16.5275 24.3882 19.1433 24.1619 21.7651C25.2827 21.7651 26.3344 21.7651 27.4267 21.7651ZM17.4918 25.3553C17.2962 25.3553 17.1475 25.3578 16.9988 25.3548C16.7073 25.3489 16.4079 25.4575 16.3897 25.737C16.3575 26.2318 16.3588 26.7564 16.494 27.2264C16.6122 27.6379 17.0444 27.8228 17.4918 27.9366C17.4918 27.0614 17.4918 26.2329 17.4918 25.3553ZM34.1019 27.9125C35.1032 27.7043 35.6627 26.5357 35.1834 25.6787C35.1083 25.5443 34.9346 25.4192 34.7839 25.3829C34.5748 25.3326 34.3441 25.3702 34.1019 25.3702C34.1019 26.2287 34.1019 27.0586 34.1019 27.9125Z" fill="white"/>
<path fill-rule="evenodd" clip-rule="evenodd" d="M36.2512 40.051C37.0652 39.3132 37.8319 38.6273 38.5864 37.9285C38.785 37.7445 38.9853 37.6179 39.2583 37.7017C39.6916 37.8348 39.7715 38.3273 39.4135 38.7006C38.7455 39.397 38.0643 40.0806 37.3978 40.7783C36.5338 41.6829 36.5367 41.6847 35.5318 40.9229C35.2421 40.7033 34.94 40.4998 34.6525 40.2776C34.3433 40.0384 34.2865 39.7304 34.4853 39.4625C34.6799 39.2004 35.0099 39.1585 35.3212 39.375C35.6802 39.6249 36.0294 39.8892 36.2512 40.051Z" fill="white"/>
</g>
<defs>
<linearGradient id="paint0_linear_558_1442" x1="48.212" y1="48.8919" x2="-8.47053" y2="-24.7954" gradientUnits="userSpaceOnUse">
<stop stop-color="#004990"/>
<stop offset="1" stop-color="#379DFF"/>
</linearGradient>
<clipPath id="clip0_558_1442">
<rect width="33" height="40" fill="white" transform="translate(9.36719 6.60889)"/>
</clipPath>
</defs>
</svg>
