<svg width="52" height="54" viewBox="0 0 52 54" fill="none" xmlns="http://www.w3.org/2000/svg">
<rect width="51.7337" height="52.8584" transform="translate(0 0.882324)" fill="url(#paint0_linear_558_1457)"/>
<g clip-path="url(#clip0_558_1457)">
<path fill-rule="evenodd" clip-rule="evenodd" d="M9.41211 29.683C9.41211 28.0958 9.41211 26.5086 9.41211 24.9214C9.43272 24.8859 9.46004 24.8527 9.47292 24.8146C9.75137 23.9875 10.3308 23.5686 11.2099 23.5624C11.4567 23.5606 11.7045 23.5736 11.9501 23.5554C12.0341 23.5493 12.159 23.4871 12.1866 23.4189C12.5582 22.499 12.9158 21.5734 13.3058 20.5757C13.1145 20.3966 12.8534 20.1732 12.6167 19.9265C11.9546 19.2364 11.9361 18.2369 12.6018 17.5524C13.5665 16.5604 14.5457 15.5819 15.5398 14.6191C16.2223 13.9582 17.2254 13.985 17.9187 14.643C18.0899 14.8054 18.2655 14.9656 18.4176 15.1449C18.5732 15.3284 18.702 15.3511 18.9321 15.2357C19.4863 14.9578 20.0618 14.7214 20.6341 14.4806C20.9192 14.3608 21.3338 14.3485 21.4754 14.1414C21.6278 13.9184 21.5287 13.5242 21.5403 13.2048C21.543 13.1299 21.546 13.0546 21.5551 12.9803C21.6622 12.1028 22.2991 11.4661 23.1805 11.4482C24.586 11.4196 25.993 11.4184 27.3984 11.448C28.3382 11.4677 29.0091 12.1886 29.044 13.1336C29.0539 13.4013 29.0569 13.6702 29.043 13.9375C29.0336 14.1191 29.1 14.1911 29.2736 14.2526C29.8787 14.4672 30.4768 14.7024 31.0727 14.9417C31.3679 15.0602 31.6771 15.3441 31.9352 15.2987C32.1978 15.2526 32.4058 14.8943 32.637 14.6718C33.3747 13.9619 34.3824 13.9562 35.1119 14.6752C36.0593 15.6091 37.0014 16.5485 37.9348 17.4963C38.6549 18.2274 38.6483 19.2325 37.9314 19.9664C37.7007 20.2024 37.4532 20.4219 37.2547 20.6097C37.571 21.3464 37.8613 22.0125 38.1424 22.6824C38.2612 22.9653 38.2826 23.3688 38.4904 23.5127C38.7029 23.6598 39.0895 23.5582 39.3998 23.5617C40.4609 23.5738 41.1657 24.2807 41.1694 25.3484C41.1736 26.5172 41.1575 27.6862 41.1755 28.8548C41.1855 29.5037 41.1463 30.1223 40.6184 30.5967C41.3709 31.4335 41.891 32.3603 42.1666 33.4162C42.255 33.7553 42.3162 34.1015 42.3898 34.4444C42.3898 34.8734 42.3898 35.3023 42.3898 35.7313C42.3053 36.1276 42.2385 36.5286 42.1327 36.9192C41.8706 37.8861 41.3981 38.7445 40.7335 39.4943C40.5184 39.7369 40.2327 39.758 40.0227 39.5689C39.8268 39.3925 39.817 39.1184 39.9994 38.8752C40.0315 38.8324 40.0683 38.7931 40.1025 38.7518C41.6005 36.9447 41.8473 34.4426 40.7291 32.3993C39.5983 30.3329 37.3601 29.1882 35.0171 29.4781C32.2986 29.8143 30.2691 31.9894 30.0455 34.8064C29.845 37.3342 31.5957 39.8207 34.1024 40.5583C35.5457 40.983 36.9429 40.8484 38.2928 40.1894C38.6551 40.0125 38.9358 40.0751 39.0677 40.3524C39.201 40.6329 39.0798 40.8814 38.7116 41.0608C37.6189 41.5933 36.468 41.8374 35.2515 41.7437C33.6381 41.6197 32.254 40.9871 31.0813 39.8751C31.0124 39.8099 30.8511 39.7848 30.7559 39.8147C30.4706 39.9041 30.1984 40.0344 29.918 40.1405C29.6384 40.2464 29.2398 40.2645 29.1047 40.4639C28.9581 40.6803 29.0515 41.0613 29.0472 41.3707C29.0326 42.4453 28.3224 43.1559 27.2403 43.1663C26.6285 43.1721 26.0166 43.1675 25.4047 43.1675C24.7069 43.1675 24.0092 43.1751 23.3116 43.1655C22.266 43.151 21.5637 42.4462 21.5404 41.401C21.5361 41.2081 21.518 41.012 21.5443 40.8226C21.5885 40.5043 21.4475 40.388 21.1541 40.2947C20.6044 40.12 20.071 39.8919 19.5366 39.6715C19.2406 39.5493 18.9295 39.2521 18.6744 39.2993C18.4006 39.3501 18.1825 39.71 17.9436 39.9386C17.2163 40.6346 16.2127 40.6486 15.4916 39.9435C14.5328 39.0059 13.5849 38.0569 12.6449 37.1004C11.9267 36.3696 11.9376 35.3621 12.6623 34.6335C12.8944 34.4 13.1579 34.1976 13.3485 34.0321C13.0148 33.2601 12.7245 32.6049 12.4488 31.9437C12.3301 31.6589 12.3229 31.2419 12.1172 31.1022C11.8937 30.9504 11.4984 31.0447 11.1779 31.0432C10.4122 31.0396 9.87205 30.6887 9.54661 30.0011C9.49757 29.8972 9.45677 29.7891 9.41211 29.683ZM39.9806 29.985C40.0657 29.7228 40.1917 29.5108 40.1946 29.2969C40.213 27.9674 40.2077 26.6375 40.2018 25.3078C40.1997 24.8184 39.9088 24.5368 39.4143 24.5289C38.9958 24.5222 38.577 24.5233 38.1584 24.5282C37.8465 24.532 37.6479 24.3925 37.5701 24.0904C37.2798 22.9629 36.833 21.8998 36.2457 20.8958C36.0831 20.618 36.1348 20.3914 36.3566 20.1762C36.6491 19.892 36.9377 19.6039 37.2219 19.3117C37.5951 18.9279 37.6021 18.5333 37.2263 18.1541C36.305 17.2243 35.3791 16.2989 34.4481 15.3787C34.0761 15.011 33.6625 15.0202 33.2878 15.3865C32.9886 15.6789 32.6956 15.9779 32.3997 16.2737C32.1995 16.474 31.9724 16.5122 31.7275 16.3686C30.7133 15.7738 29.6356 15.3323 28.5006 15.0298C28.2077 14.9517 28.0743 14.7724 28.0791 14.4712C28.0855 14.0637 28.085 13.6561 28.0791 13.2486C28.0711 12.6956 27.796 12.4077 27.248 12.4046C25.9492 12.3973 24.6502 12.3981 23.3513 12.4042C22.7968 12.4068 22.5192 12.685 22.5076 13.2353C22.499 13.6427 22.5002 14.0504 22.507 14.4578C22.5123 14.7719 22.374 14.9562 22.0667 15.0367C20.9511 15.3295 19.8948 15.7679 18.8988 16.3496C18.6167 16.5145 18.3751 16.4746 18.1487 16.2375C17.8671 15.9428 17.5765 15.6565 17.2834 15.3732C16.9202 15.0223 16.5051 15.0166 16.1473 15.3708C15.2095 16.2993 14.2755 17.2317 13.3472 18.1696C12.9874 18.533 12.9958 18.9329 13.3539 19.3024C13.6375 19.5951 13.9255 19.884 14.2195 20.1664C14.4537 20.3912 14.4997 20.6247 14.3304 20.913C13.7467 21.9069 13.3073 22.9622 13.018 24.0782C12.9351 24.3982 12.7313 24.534 12.4075 24.5287C11.9997 24.522 11.5916 24.5231 11.1838 24.5287C10.6736 24.5357 10.3822 24.8193 10.3803 25.3265C10.3751 26.6455 10.3748 27.9646 10.3804 29.2836C10.3826 29.7891 10.6755 30.069 11.1899 30.0757C11.5977 30.081 12.0057 30.0823 12.4135 30.0755C12.7395 30.0702 12.9368 30.2127 13.0196 30.5314C13.3094 31.6473 13.7502 32.702 14.3332 33.6963C14.4933 33.9693 14.462 34.1995 14.2376 34.4184C13.938 34.7105 13.6411 35.0055 13.3501 35.3062C12.994 35.6741 12.989 36.0731 13.3514 36.4388C14.28 37.3765 15.2133 38.3096 16.152 39.2371C16.5094 39.5903 16.9233 39.5802 17.2879 39.2266C17.5882 38.9352 17.8823 38.6375 18.1761 38.3397C18.3861 38.1269 18.6181 38.0925 18.875 38.2426C19.8805 38.83 20.9466 39.2727 22.0723 39.5691C22.3821 39.6506 22.5127 39.8397 22.5072 40.1517C22.5002 40.5483 22.501 40.9453 22.5071 41.342C22.516 41.9151 22.7895 42.1976 23.3571 42.2001C24.6453 42.2061 25.9334 42.206 27.2215 42.2003C27.795 42.1978 28.0718 41.9174 28.0794 41.3495C28.0848 40.9421 28.0856 40.5344 28.0793 40.1271C28.0746 39.8239 28.2131 39.6438 28.506 39.5727C28.6517 39.5374 28.7975 39.4993 28.9389 39.4502C29.3879 39.2948 29.8348 39.1337 30.1968 39.0051C29.8071 38.06 29.4394 37.168 29.0611 36.2509C29.1121 36.2509 29.089 36.2451 29.0701 36.2518C28.9895 36.2804 28.91 36.3125 28.8302 36.3435C27.0315 37.0416 25.1818 37.2018 23.2981 36.8018C17.2032 35.5076 13.8846 28.9448 16.4511 23.2766C17.0254 22.0084 17.8468 20.9186 18.8933 20C19.1429 19.7809 19.4159 19.7861 19.6092 19.9937C19.797 20.1955 19.7726 20.4797 19.5461 20.7073C19.4932 20.7605 19.4356 20.8091 19.3803 20.8598C14.4887 25.3549 16.2018 33.4543 22.4957 35.5868C22.612 35.6262 22.7328 35.6524 22.8904 35.6953C22.8904 35.5414 22.8904 35.4359 22.8904 35.3305C22.8904 33.9256 22.8844 32.5207 22.896 31.1159C22.898 30.8697 22.8286 30.7448 22.5992 30.6279C19.0151 28.8023 18.5368 23.8531 21.7086 21.38C22.0312 21.1285 22.4138 20.9277 22.7995 20.7899C23.2557 20.6269 23.6986 20.8913 23.8285 21.3566C23.8935 21.589 23.9043 21.8422 23.9055 22.086C23.911 23.2012 23.8949 24.3166 23.9055 25.4317C23.9126 26.1803 24.5178 26.8361 25.2292 26.9047C25.8099 26.9605 26.4968 26.3894 26.6461 25.7149C26.678 25.5703 26.6798 25.4169 26.6797 25.2676C26.6788 24.1738 26.6703 23.08 26.6734 21.9862C26.674 21.7849 26.6914 21.5768 26.7448 21.3838C26.8782 20.9007 27.3111 20.6416 27.7895 20.7867C28.0812 20.8753 28.3711 21.014 28.6214 21.1882C32.0554 23.5786 31.6903 28.7516 27.956 30.6444C27.7709 30.7383 27.6877 30.832 27.6894 31.0527C27.701 32.5003 27.6949 33.9481 27.6963 35.3959C27.6963 35.4864 27.7098 35.5766 27.7212 35.7173C28.0776 35.5848 28.3934 35.4563 28.7167 35.3509C28.9697 35.2683 29.0993 35.1406 29.0833 34.8485C29.0694 34.595 29.111 34.3342 29.1584 34.0822C29.6557 31.441 31.1789 29.674 33.7142 28.781C33.8792 28.7228 33.9437 28.6471 33.9654 28.4699C34.095 27.4167 34.0525 26.3742 33.8204 25.3385C32.7954 20.767 28.1717 17.7692 23.5881 18.7479C22.7802 18.9204 22.0107 19.2773 21.2287 19.5637C20.9031 19.683 20.6054 19.5988 20.5056 19.3188C20.4128 19.0583 20.5242 18.8359 20.8398 18.6765C22.694 17.7402 24.6468 17.4113 26.7088 17.7007C31.2948 18.3447 34.8652 22.3197 34.9935 26.9439C35.0076 27.4543 34.9953 27.9654 34.9953 28.4958C36.8085 28.3201 38.4545 28.8006 39.9806 29.985ZM23.8567 35.9159C24.8297 36.0873 25.7703 36.0953 26.7293 35.9133C26.7293 35.766 26.7293 35.6491 26.7293 35.5323C26.7293 33.9458 26.7459 32.359 26.7192 30.7729C26.7113 30.3044 26.8717 30.0719 27.2999 29.878C28.8925 29.1571 29.8243 27.8968 30.0003 26.1651C30.1755 24.4434 29.5012 23.0487 28.1131 22.0078C27.9813 21.9092 27.83 21.8365 27.6536 21.7315C27.6466 21.87 27.6385 21.9528 27.6388 22.0354C27.6409 23.118 27.655 24.2009 27.6405 25.2832C27.6362 25.5996 27.5958 25.9301 27.4945 26.2278C27.1104 27.3554 25.9053 28.0591 24.8394 27.8102C23.766 27.5594 22.953 26.57 22.9398 25.461C22.9267 24.3464 22.9397 23.2314 22.9412 22.1166C22.9413 22.0053 22.9412 21.894 22.9412 21.7676C22.8669 21.7831 22.8332 21.7823 22.8082 21.7968C22.7061 21.8555 22.6015 21.9119 22.5071 21.9817C21.1126 23.0118 20.4181 24.3978 20.5805 26.1214C20.7487 27.9079 21.7152 29.1862 23.3604 29.9173C23.7171 30.0758 23.8671 30.2727 23.8633 30.6648C23.8475 32.294 23.8567 33.9235 23.8567 35.5529C23.8567 35.6687 23.8567 35.7849 23.8567 35.9159Z" fill="white"/>
<path fill-rule="evenodd" clip-rule="evenodd" d="M34.9772 34.3575C35.5214 33.7092 36.0591 33.073 36.592 32.4326C36.9828 31.9628 37.4734 31.7259 38.0883 31.7881C39.3499 31.9158 40.0402 33.3631 39.2644 34.3644C38.3336 35.5662 37.3391 36.7206 36.336 37.8639C35.7863 38.4904 34.8357 38.5387 34.1746 38.0174C33.5943 37.5599 33.0286 37.0814 32.484 36.5821C31.8405 35.9919 31.7956 35.0045 32.347 34.343C32.9145 33.6618 33.8803 33.5404 34.6017 34.062C34.7221 34.149 34.8352 34.2455 34.9772 34.3575ZM38.6368 33.4585C38.5857 33.301 38.5666 33.1814 38.5112 33.0819C38.2713 32.6511 37.699 32.6275 37.3488 33.0391C36.7166 33.7822 36.0954 34.5349 35.4638 35.2785C35.1915 35.599 34.9585 35.6131 34.636 35.3474C34.4539 35.1974 34.28 35.0374 34.0947 34.8915C33.7497 34.62 33.345 34.6509 33.0927 34.9601C32.8467 35.2616 32.8808 35.6491 33.2033 35.9325C33.6946 36.3642 34.1938 36.7874 34.6982 37.2037C35.0503 37.4943 35.423 37.4659 35.7192 37.1169C36.6207 36.0538 37.5161 34.9854 38.4044 33.9114C38.514 33.7788 38.5665 33.5989 38.6368 33.4585Z" fill="white"/>
</g>
<defs>
<linearGradient id="paint0_linear_558_1457" x1="48.212" y1="48.8919" x2="-8.47053" y2="-24.7954" gradientUnits="userSpaceOnUse">
<stop stop-color="#004990"/>
<stop offset="1" stop-color="#379DFF"/>
</linearGradient>
<clipPath id="clip0_558_1457">
<rect width="33" height="31.7087" fill="white" transform="translate(9.36719 11.457)"/>
</clipPath>
</defs>
</svg>
